<?xml version="1.0" encoding="utf-8"?>
<!-- Generator: Adobe Illustrator 16.0.0, SVG Export Plug-In . SVG Version: 6.00 Build 0)  -->
<!DOCTYPE svg PUBLIC "-//W3C//DTD SVG 1.1//EN" "http://www.w3.org/Graphics/SVG/1.1/DTD/svg11.dtd">
<svg version="1.1" id="Layer_1" xmlns="http://www.w3.org/2000/svg" xmlns:xlink="http://www.w3.org/1999/xlink" x="0px" y="0px"
	 width="1190.551px" height="1190.551px" viewBox="0 -174.33 1190.551 1190.551"
	 enable-background="new 0 -174.33 1190.551 1190.551" xml:space="preserve">
<path fill="#626262" d="M301.225-17.919c-0.126,79.057-66.474,145.132-145.418,144.822C76.704,126.593,10.748,60.129,11.242-18.772
	c0.493-78.754,66.257-144.246,144.907-144.31C235.156-163.142,301.349-96.909,301.225-17.919z"/>
<path fill="#626262" d="M595.385,126.903c-78.989,0.09-145.209-66.139-145.109-145.13c0.101-79.047,66.433-145.138,145.386-144.854
	c78.704,0.287,144.325,65.917,144.597,144.617C740.53,60.494,674.434,126.813,595.385,126.903z"/>
<path fill="#626262" d="M1034.42,126.903c-78.989,0.092-145.21-66.139-145.109-145.13c0.1-79.047,66.436-145.138,145.385-144.854
	c78.702,0.287,144.323,65.917,144.599,144.617C1179.566,60.494,1113.47,126.813,1034.42,126.903z"/>
<path fill="#626262" d="M301.225,421.115c-0.126,79.054-66.474,145.13-145.418,144.821c-79.101-0.31-145.059-66.777-144.564-145.674
	c0.491-78.754,66.255-144.246,144.905-144.308C235.155,275.892,301.349,342.125,301.225,421.115z"/>
<path fill="#626262" d="M740.257,421.871c-0.679,79.218-67.356,144.936-146.173,144.065
	c-79.262-0.875-144.871-67.678-143.806-146.425c1.071-78.941,67.119-144.038,145.658-143.553
	C675.094,276.439,740.934,343.01,740.257,421.871z"/>
<path fill="#626262" d="M1179.294,420.723c0.159,78.987-66.008,145.24-145.027,145.213
	c-79.033-0.025-145.173-66.313-144.956-145.283c0.212-78.687,65.79-144.353,144.513-144.699
	C1112.75,275.607,1179.132,341.666,1179.294,420.723z"/>
<path fill="#626262" d="M301.225,859.708c0.201,78.969-65.945,145.25-144.976,145.264c-79.027,0.012-145.184-66.25-145.007-145.232
	c0.174-78.677,65.736-144.369,144.46-144.751C234.628,714.605,301.025,780.637,301.225,859.708z"/>
<path fill="#626262" d="M740.257,859.708c0.203,78.969-65.944,145.25-144.973,145.264c-79.025,0.012-145.184-66.25-145.007-145.232
	c0.174-78.677,65.735-144.369,144.462-144.751C673.658,714.605,740.058,780.637,740.257,859.708z"/>
<path fill="#626262" d="M1179.294,860.181c-0.148,79.057-66.517,145.124-145.452,144.79
	c-79.11-0.335-145.048-66.815-144.531-145.707c0.517-78.767,66.292-144.24,144.938-144.276
	C1113.264,714.95,1179.439,781.192,1179.294,860.181z"/>
</svg>
